<svg xmlns="http://www.w3.org/2000/svg" xmlns:xlink="http://www.w3.org/1999/xlink" fill="none" stroke="#2266aa" stroke-linecap="square" stroke-miterlimit="10" version="1.1" viewBox="0.0 0.0 960.0 720.0">
    <clipPath id="p.0">
        <path d="m0 0l960.0 0l0 720.0l-960.0 0l0 -720.0z" clip-rule="nonzero"/>
    </clipPath>
    <g clip-path="url(#p.0)">
        <path fill="#000000" fill-opacity="0.0" fill-rule="evenodd" d="m0 0l960.0 0l0 720.0l-960.0 0z"/>
        <path fill="#000000" fill-opacity="0.0" fill-rule="evenodd" d="m481.34232 675.9554c-8.244476 -28.445312 -57.711 -93.390625 -49.46692 -170.6719c8.244049 -77.28128 90.992035 -216.65225 98.931244 -293.01575c7.93927 -76.36351 -42.74652 -137.63779 -51.295837 -165.16534"/>
        <path fill-rule="evenodd" stroke-linecap="butt" stroke-linejoin="round" stroke-width="64.0" d="m481.34232 675.9554c-8.244476 -28.445312 -57.711 -93.390625 -49.46692 -170.6719c8.244049 -77.28128 90.992035 -216.65225 98.931244 -293.01575c7.93927 -76.36351 -42.74652 -137.63779 -51.295837 -165.16534"/>
        <path fill="#000000" fill-opacity="0.0" fill-rule="evenodd" d="m289.34647 216.55118l241.00784 0.59843445"/>
        <path fill-rule="evenodd" stroke-linecap="butt" stroke-linejoin="round" stroke-width="24.0" d="m289.34647 216.55118l241.00784 0.59843445"/>
        <path fill="#000000" fill-opacity="0.0" fill-rule="evenodd" d="m192.78477 217.55643l0 0c0 -26.518356 21.49739 -48.015747 48.015747 -48.015747l0 0c12.734573 0 24.947556 5.058792 33.952255 14.063492c9.0047 9.0047 14.063507 21.217697 14.063507 33.952255l0 0c0 26.518372 -21.497406 48.015747 -48.015762 48.015747l0 0c-26.518356 0 -48.015747 -21.497375 -48.015747 -48.015747z"/>
        <path fill-rule="evenodd" stroke-linecap="butt" stroke-linejoin="round" stroke-width="24.0" d="m192.78477 217.55643l0 0c0 -26.518356 21.49739 -48.015747 48.015747 -48.015747l0 0c12.734573 0 24.947556 5.058792 33.952255 14.063492c9.0047 9.0047 14.063507 21.217697 14.063507 33.952255l0 0c0 26.518372 -21.497406 48.015747 -48.015762 48.015747l0 0c-26.518356 0 -48.015747 -21.497375 -48.015747 -48.015747z"/>
        <path fill="#000000" fill-opacity="0.0" fill-rule="evenodd" d="m672.2861 504.06036l-239.18109 -0.5984192"/>
        <path fill-rule="evenodd" stroke-linecap="butt" stroke-linejoin="round" stroke-width="24.0" d="m672.2861 504.06036l-239.18109 -0.5984192"/>
        <path fill="#000000" fill-opacity="0.0" fill-rule="evenodd" d="m673.69556 503.3281l0 0c0 -26.518372 21.497375 -48.015747 48.015747 -48.015747l0 0c12.734558 0 24.94757 5.058777 33.95227 14.063477c9.0047 9.0047 14.063477 21.217682 14.063477 33.95227l0 0c0 26.518341 -21.497375 48.015717 -48.015747 48.015717l0 0c-26.518372 0 -48.015747 -21.497375 -48.015747 -48.015717z"/>
        <path fill-rule="evenodd" stroke-linecap="butt" stroke-linejoin="round" stroke-width="24.0" d="m673.69556 503.3281l0 0c0 -26.518372 21.497375 -48.015747 48.015747 -48.015747l0 0c12.734558 0 24.94757 5.058777 33.95227 14.063477c9.0047 9.0047 14.063477 21.217682 14.063477 33.95227l0 0c0 26.518341 -21.497375 48.015717 -48.015747 48.015717l0 0c-26.518372 0 -48.015747 -21.497375 -48.015747 -48.015717z"/>
        <path fill="#000000" fill-opacity="0.0" fill-rule="evenodd" d="m737.2231 315.74277l-239.18109 -0.5984192"/>
        <path fill-rule="evenodd" stroke-linecap="butt" stroke-linejoin="round" stroke-width="24.0" d="m737.2231 315.74277l-239.18109 -0.5984192"/>
        <path fill="#000000" fill-opacity="0.0" fill-rule="evenodd" d="m738.63257 315.0105l0 0c0 -26.518372 21.497375 -48.015747 48.015747 -48.015747l0 0c12.734558 0 24.94751 5.058777 33.95221 14.063477c9.0047 9.0047 14.063538 21.217712 14.063538 33.95227l0 0c0 26.518372 -21.497375 48.015747 -48.015747 48.015747l0 0c-26.518372 0 -48.015747 -21.497375 -48.015747 -48.015747z"/>
        <path fill-rule="evenodd" stroke-linecap="butt" stroke-linejoin="round" stroke-width="24.0" d="m738.63257 315.0105l0 0c0 -26.518372 21.497375 -48.015747 48.015747 -48.015747l0 0c12.734558 0 24.94751 5.058777 33.95221 14.063477c9.0047 9.0047 14.063538 21.217712 14.063538 33.95227l0 0c0 26.518372 -21.497375 48.015747 -48.015747 48.015747l0 0c-26.518372 0 -48.015747 -21.497375 -48.015747 -48.015747z"/>
        <path fill="#000000" fill-opacity="0.0" fill-rule="evenodd" d="m217.25984 412.39896l241.00789 0.5984192"/>
        <path fill-rule="evenodd" stroke-linecap="butt" stroke-linejoin="round" stroke-width="24.0" d="m217.25984 412.39896l241.00789 0.5984192"/>
        <path fill="#000000" fill-opacity="0.0" fill-rule="evenodd" d="m120.698166 413.4042l0 0c0 -26.518372 21.497375 -48.015747 48.015747 -48.015747l0 0c12.734573 0 24.947556 5.058777 33.952255 14.063477c9.0047 9.0047 14.063492 21.217682 14.063492 33.95227l0 0c0 26.518372 -21.49739 48.015747 -48.015747 48.015747l0 0c-26.518372 0 -48.015747 -21.497375 -48.015747 -48.015747z"/>
        <path fill-rule="evenodd" stroke-linecap="butt" stroke-linejoin="round" stroke-width="24.0" d="m120.698166 413.4042l0 0c0 -26.518372 21.497375 -48.015747 48.015747 -48.015747l0 0c12.734573 0 24.947556 5.058777 33.952255 14.063477c9.0047 9.0047 14.063492 21.217682 14.063492 33.95227l0 0c0 26.518372 -21.49739 48.015747 -48.015747 48.015747l0 0c-26.518372 0 -48.015747 -21.497375 -48.015747 -48.015747z"/>
    </g>
</svg>
